<svg width="182" height="78" viewBox="0 0 182 78" fill="none" xmlns="http://www.w3.org/2000/svg">
<path d="M95.1305 33.3335C95.0502 33.221 94.9377 33.1647 94.793 33.1647C94.6644 33.1647 94.5519 33.221 94.4635 33.3335C94.3751 33.446 94.335 33.6067 94.335 33.8076V44.3027C94.335 44.4875 94.3751 44.6402 94.4635 44.7688C94.5519 44.8893 94.6564 44.9536 94.793 44.9536C94.9377 44.9536 95.0421 44.8893 95.1305 44.7688C95.2109 44.6482 95.2511 44.4955 95.2511 44.3027V33.8076C95.2511 33.6067 95.2109 33.454 95.1305 33.3335Z" fill="white"/>
<path d="M111.958 57.763C108.776 55.8906 106.277 53.311 104.452 50.0243C102.628 46.7376 101.72 43.0972 101.72 39.0953C101.72 35.0451 102.564 31.3887 104.26 28.1261C105.955 24.8715 108.31 22.3 111.339 20.4276C114.369 18.5552 117.752 17.615 121.497 17.615C124.784 17.615 127.781 18.2579 130.505 19.5356C133.221 20.8214 135.584 22.7179 137.585 25.2331C137.947 25.7475 138.123 26.1814 138.123 26.543C138.123 27.2582 137.762 27.8288 137.047 28.2386C136.685 28.544 136.275 28.6967 135.817 28.6967C135.094 28.6967 134.507 28.3913 134.049 27.7725C130.762 23.8751 126.584 21.9223 121.505 21.9223C118.532 21.9223 115.888 22.6536 113.573 24.1161C111.259 25.5787 109.483 27.6198 108.221 30.2316C106.96 32.8513 106.333 35.8005 106.333 39.0792C106.333 42.3097 107.024 45.2348 108.414 47.8546C109.796 50.4743 111.725 52.5235 114.184 54.0102C116.643 55.4968 119.472 56.2442 122.654 56.2442C127.17 56.2442 130.787 54.9906 133.503 52.4753C133.961 52.0172 134.507 51.7842 135.118 51.7842C135.68 51.7842 136.147 51.961 136.5 52.3226C137.014 52.7807 137.272 53.3512 137.272 54.0182C137.272 54.5807 137.063 55.0468 136.653 55.4004C134.853 57.0398 132.755 58.3094 130.345 59.2095C127.934 60.1095 125.37 60.5595 122.646 60.5595C118.708 60.5756 115.14 59.6434 111.958 57.763Z" fill="white"/>
<path d="M182 58.1085C182 58.6711 181.719 59.2095 181.156 59.7238C180.642 60.1336 180.184 60.3425 179.774 60.3425C179.155 60.3425 178.617 60.0372 178.159 59.4184L161.452 39.023L154.292 45.5643V57.8032C154.292 58.4702 154.083 59.0246 153.673 59.4586C153.263 59.8925 152.701 60.1095 151.977 60.1095C151.31 60.1095 150.756 59.8925 150.322 59.4586C149.888 59.0246 149.671 58.4702 149.671 57.8032V2.31438C149.671 1.59917 149.888 1.02861 150.322 0.618774C150.756 0.208937 151.31 0 151.977 0C152.693 0 153.263 0.208937 153.673 0.618774C154.083 1.02861 154.292 1.59113 154.292 2.31438V39.9551L178.151 18.2498C178.665 17.84 179.155 17.631 179.613 17.631C180.128 17.631 180.618 17.8882 181.076 18.4025C181.534 18.8606 181.767 19.3508 181.767 19.8651C181.767 20.3794 181.51 20.8696 180.996 21.3276L164.674 36.1862L181.454 56.7344C181.823 57.1362 182 57.6023 182 58.1085Z" fill="white"/>
<path d="M89.1517 60.5113C88.34 60.5113 87.665 60.1416 87.1266 59.3943C86.5882 58.6469 86.323 57.7067 86.323 56.5817V22.2518C86.323 21.0705 86.5882 20.1222 87.1266 19.399C87.665 18.6757 88.332 18.3221 89.1517 18.3221C90.0035 18.3221 90.6866 18.6838 91.2009 19.399C91.7152 20.1222 91.9804 21.0705 91.9804 22.2518V56.5817C91.9804 57.7148 91.7232 58.655 91.2009 59.3943C90.6785 60.1416 89.9955 60.5113 89.1517 60.5113Z" fill="white"/>
<path d="M74.2609 60.5113C72.6456 60.5113 71.2232 60.0693 69.9777 59.1934C68.7321 58.3174 67.7597 57.1201 67.0686 55.5932C66.3695 54.0744 66.0239 52.3226 66.0239 50.3457V20.3713C66.0239 19.5677 66.2811 18.9087 66.7954 18.3944C67.3097 17.8801 67.9686 17.623 68.7722 17.623C69.5758 17.623 70.2348 17.8801 70.7491 18.3944C71.2634 18.9087 71.5206 19.5677 71.5206 20.3713V50.3537C71.5206 51.7118 71.7777 52.8288 72.292 53.7048C72.8063 54.5807 73.4653 55.0227 74.2689 55.0227H75.643C76.3743 55.0227 76.969 55.2798 77.427 55.7941C77.8851 56.3084 78.1101 56.9674 78.1101 57.771C78.1101 58.5746 77.7646 59.2335 77.0654 59.7479C76.3663 60.2622 75.4743 60.5193 74.3734 60.5193H74.2609V60.5113Z" fill="white"/>
<path d="M33.7192 74.0279C29.002 74.0279 24.5903 73.1439 20.4838 71.3599C16.3774 69.584 12.7934 67.1089 9.73967 63.9346C6.68598 60.7604 4.29124 57.0478 2.57957 52.7967C0.859855 48.5456 0 43.949 0 38.9988C0 34.1049 0.859855 29.5485 2.57957 25.3296C4.29928 21.1106 6.68598 17.4141 9.73967 14.2398C12.7934 11.0656 16.3614 8.57444 20.4437 6.77436C24.5179 4.96626 28.9458 4.06622 33.7192 4.06622C38.2033 4.06622 42.0606 4.65285 45.2911 5.81004C48.5215 6.97527 51.7681 8.89588 55.0307 11.5719C55.4968 11.9174 55.8584 12.2871 56.1236 12.6648C56.3888 13.0425 56.5576 13.4202 56.646 13.7979C56.7344 14.1755 56.7746 14.6256 56.7746 15.1479C56.7746 16.2569 56.3808 17.173 55.5933 17.8962C54.8057 18.6275 53.8575 19.0293 52.7565 19.1177C51.6476 19.2061 50.5707 18.8445 49.5261 18.0248C47.3724 16.1604 45.1464 14.7381 42.8401 13.7416C40.5418 12.7532 37.4961 12.2549 33.7111 12.2549C30.2717 12.2549 27.0412 12.9541 24.0117 14.3523C20.9821 15.7506 18.3221 17.6712 16.0158 20.1142C13.7175 22.5571 11.9255 25.4019 10.6397 28.6324C9.36198 31.8628 8.71909 35.3183 8.71909 38.9828C8.71909 42.7115 9.36198 46.1911 10.6397 49.4216C11.9174 52.6521 13.7095 55.4888 16.0158 57.9398C18.3141 60.3827 20.9821 62.2953 24.0117 63.6614C27.0412 65.0275 30.2717 65.7106 33.7111 65.7106C36.6845 65.7106 39.4891 65.2043 42.1409 64.1838C44.7928 63.1632 47.3403 61.7569 49.7832 59.9488C50.8279 59.1934 51.8645 58.8559 52.8851 58.9443C53.9057 59.0327 54.7655 59.4425 55.4647 60.1657C56.1638 60.897 56.5094 61.9015 56.5094 63.1793C56.5094 63.7659 56.3888 64.3284 56.1638 64.8829C55.9308 65.4374 55.5772 65.9437 55.1191 66.4097C51.977 68.917 48.6099 70.8054 45.0339 72.0912C41.4498 73.393 37.6809 74.0279 33.7192 74.0279Z" fill="white"/>
<path d="M63.7188 75.1049C63.1525 75.1049 62.6212 75 62.1249 74.7903C61.6355 74.5736 61.2056 74.2765 60.8351 73.8989C60.4716 73.5145 60.1849 73.067 59.9752 72.5567C59.7725 72.0464 59.6711 71.4941 59.6711 70.8999C59.6711 70.3127 59.7725 69.7674 59.9752 69.264C60.1849 68.7537 60.4716 68.3098 60.8351 67.9323C61.2056 67.5478 61.6355 67.2472 62.1249 67.0305C62.6142 66.8138 63.1455 66.7054 63.7188 66.7054C64.2571 66.7054 64.7185 66.7753 65.103 66.9151C65.4945 67.055 65.8859 67.2857 66.2774 67.6072C66.3613 67.6771 66.4172 67.7435 66.4452 67.8065C66.4732 67.8694 66.4871 67.9463 66.4871 68.0372C66.4871 68.17 66.4382 68.2818 66.3403 68.3727C66.2495 68.4566 66.1376 68.5055 66.0048 68.5195C65.872 68.5265 65.7426 68.4811 65.6168 68.3832C65.3581 68.1595 65.089 67.9882 64.8094 67.8694C64.5367 67.7505 64.1732 67.6911 63.7188 67.6911C63.3063 67.6911 62.9183 67.775 62.5548 67.9428C62.1913 68.1106 61.8697 68.3413 61.5901 68.6349C61.3175 68.9285 61.1042 69.271 60.9504 69.6625C60.7966 70.047 60.7197 70.4595 60.7197 70.8999C60.7197 71.3473 60.7966 71.7668 60.9504 72.1582C61.1042 72.5427 61.3175 72.8818 61.5901 73.1754C61.8697 73.469 62.1913 73.6997 62.5548 73.8675C62.9183 74.0283 63.3063 74.1087 63.7188 74.1087C64.0753 74.1087 64.4109 74.0493 64.7255 73.9304C65.047 73.8046 65.3546 73.6333 65.6483 73.4166C65.7741 73.3257 65.8964 73.2873 66.0153 73.3012C66.1411 73.3082 66.246 73.3572 66.3299 73.448C66.4137 73.5319 66.4557 73.6508 66.4557 73.8046C66.4557 73.9514 66.3998 74.0807 66.2879 74.1926C65.5329 74.8008 64.6765 75.1049 63.7188 75.1049ZM71.9855 75.1049C71.3703 75.1049 70.8076 75.0035 70.2972 74.8008C69.7869 74.591 69.3465 74.3009 68.976 73.9304C68.6125 73.5529 68.3293 73.109 68.1266 72.5987C67.9239 72.0813 67.8225 71.5151 67.8225 70.8999C67.8225 70.2847 67.9239 69.7219 68.1266 69.2116C68.3293 68.7013 68.6125 68.2609 68.976 67.8904C69.3465 67.5129 69.7869 67.2227 70.2972 67.02C70.8076 66.8103 71.3703 66.7054 71.9855 66.7054C72.6007 66.7054 73.16 66.8103 73.6633 67.02C74.1736 67.2227 74.6141 67.5129 74.9846 67.8904C75.3551 68.2609 75.6417 68.7013 75.8444 69.2116C76.0472 69.7219 76.1485 70.2847 76.1485 70.8999C76.1485 71.5151 76.0472 72.0813 75.8444 72.5987C75.6417 73.109 75.3551 73.5529 74.9846 73.9304C74.6141 74.3009 74.1736 74.591 73.6633 74.8008C73.16 75.0035 72.6007 75.1049 71.9855 75.1049ZM71.9855 74.1192C72.5937 74.1192 73.132 73.9793 73.6004 73.6997C74.0688 73.4131 74.4358 73.0286 74.7014 72.5462C74.9671 72.0569 75.0999 71.5081 75.0999 70.8999C75.0999 70.2917 74.9671 69.7464 74.7014 69.264C74.4358 68.7747 74.0688 68.3902 73.6004 68.1106C73.132 67.8309 72.5937 67.6911 71.9855 67.6911C71.3773 67.6911 70.839 67.8309 70.3706 68.1106C69.9023 68.3902 69.5352 68.7747 69.2696 69.264C69.0039 69.7464 68.8711 70.2917 68.8711 70.8999C68.8711 71.5081 69.0039 72.0569 69.2696 72.5462C69.5352 73.0286 69.9023 73.4131 70.3706 73.6997C70.839 73.9793 71.3773 74.1192 71.9855 74.1192ZM78.402 75C78.2482 75 78.1189 74.9476 78.014 74.8427C77.9092 74.7378 77.8567 74.6085 77.8567 74.4547V67.3556C77.8567 67.1948 77.9092 67.0654 78.014 66.9676C78.1189 66.8627 78.2482 66.8103 78.402 66.8103C78.6117 66.8103 78.7725 66.9081 78.8844 67.1039L81.9988 73.3432L85.0293 67.1039C85.1411 66.9081 85.3019 66.8103 85.5117 66.8103C85.6655 66.8103 85.7948 66.8627 85.8996 66.9676C86.0045 67.0654 86.0569 67.1948 86.0569 67.3556V74.4547C86.0569 74.6085 86.001 74.7378 85.8892 74.8427C85.7843 74.9476 85.6585 75 85.5117 75C85.3579 75 85.2285 74.9476 85.1237 74.8427C85.0188 74.7378 84.9664 74.6085 84.9664 74.4547V69.2431L82.4287 74.4128C82.3099 74.5945 82.1526 74.6854 81.9568 74.6854C81.7261 74.6854 81.5584 74.5771 81.4535 74.3603L78.9473 69.3375V74.4547C78.9473 74.6085 78.8949 74.7378 78.79 74.8427C78.6851 74.9476 78.5558 75 78.402 75ZM91.5876 75.1678C90.9165 75.1678 90.3223 75.0454 89.8049 74.8008C89.2876 74.5491 88.8821 74.203 88.5885 73.7626C88.3019 73.3222 88.1586 72.8189 88.1586 72.2526V67.3556C88.1586 67.1948 88.211 67.0654 88.3159 66.9676C88.4208 66.8627 88.5501 66.8103 88.7039 66.8103C88.8647 66.8103 88.994 66.8627 89.0919 66.9676C89.1967 67.0654 89.2492 67.1948 89.2492 67.3556V72.2526C89.2492 72.6301 89.347 72.9657 89.5428 73.2593C89.7455 73.5459 90.0216 73.7731 90.3712 73.9409C90.7277 74.1017 91.1332 74.1821 91.5876 74.1821C92.028 74.1821 92.416 74.1017 92.7516 73.9409C93.0941 73.7731 93.3598 73.5459 93.5485 73.2593C93.7443 72.9657 93.8421 72.6301 93.8421 72.2526V67.3556C93.8421 67.1948 93.8946 67.0654 93.9994 66.9676C94.1043 66.8627 94.2336 66.8103 94.3874 66.8103C94.5482 66.8103 94.6775 66.8627 94.7754 66.9676C94.8733 67.0654 94.9222 67.1948 94.9222 67.3556V72.2526C94.9222 72.8189 94.7789 73.3222 94.4923 73.7626C94.2126 74.203 93.8212 74.5491 93.3178 74.8008C92.8145 75.0454 92.2377 75.1678 91.5876 75.1678ZM97.5514 75C97.3976 75 97.2682 74.9476 97.1634 74.8427C97.0655 74.7378 97.0166 74.6085 97.0166 74.4547V67.3556C97.0166 67.1948 97.0655 67.0654 97.1634 66.9676C97.2682 66.8627 97.3976 66.8103 97.5514 66.8103C97.7191 66.8103 97.859 66.8767 97.9708 67.0095L102.543 73.0915V67.3556C102.543 67.1948 102.595 67.0654 102.7 66.9676C102.805 66.8627 102.934 66.8103 103.088 66.8103C103.249 66.8103 103.378 66.8627 103.476 66.9676C103.574 67.0654 103.623 67.1948 103.623 67.3556V74.4547C103.623 74.6085 103.574 74.7378 103.476 74.8427C103.378 74.9476 103.249 75 103.088 75C103.018 75 102.941 74.986 102.857 74.9581C102.78 74.9231 102.718 74.8742 102.669 74.8112L98.0967 68.7293V74.4547C98.0967 74.6085 98.0442 74.7378 97.9394 74.8427C97.8415 74.9476 97.7122 75 97.5514 75ZM106.266 75C106.112 75 105.983 74.9476 105.878 74.8427C105.773 74.7378 105.721 74.6085 105.721 74.4547V67.3556C105.721 67.1948 105.773 67.0654 105.878 66.9676C105.983 66.8627 106.112 66.8103 106.266 66.8103C106.427 66.8103 106.556 66.8627 106.654 66.9676C106.759 67.0654 106.812 67.1948 106.812 67.3556V74.4547C106.812 74.6085 106.759 74.7378 106.654 74.8427C106.556 74.9476 106.427 75 106.266 75ZM112.576 75.1049C112.01 75.1049 111.478 75 110.982 74.7903C110.493 74.5736 110.063 74.2765 109.692 73.8989C109.329 73.5145 109.042 73.067 108.832 72.5567C108.63 72.0464 108.528 71.4941 108.528 70.8999C108.528 70.3127 108.63 69.7674 108.832 69.264C109.042 68.7537 109.329 68.3098 109.692 67.9323C110.063 67.5478 110.493 67.2472 110.982 67.0305C111.471 66.8138 112.003 66.7054 112.576 66.7054C113.114 66.7054 113.576 66.7753 113.96 66.9151C114.352 67.055 114.743 67.2857 115.135 67.6072C115.218 67.6771 115.274 67.7435 115.302 67.8065C115.33 67.8694 115.344 67.9463 115.344 68.0372C115.344 68.17 115.295 68.2818 115.197 68.3727C115.107 68.4566 114.995 68.5055 114.862 68.5195C114.729 68.5265 114.6 68.4811 114.474 68.3832C114.215 68.1595 113.946 67.9882 113.666 67.8694C113.394 67.7505 113.03 67.6911 112.576 67.6911C112.163 67.6911 111.775 67.775 111.412 67.9428C111.048 68.1106 110.727 68.3413 110.447 68.6349C110.175 68.9285 109.961 69.271 109.808 69.6625C109.654 70.047 109.577 70.4595 109.577 70.8999C109.577 71.3473 109.654 71.7668 109.808 72.1582C109.961 72.5427 110.175 72.8818 110.447 73.1754C110.727 73.469 111.048 73.6997 111.412 73.8675C111.775 74.0283 112.163 74.1087 112.576 74.1087C112.932 74.1087 113.268 74.0493 113.583 73.9304C113.904 73.8046 114.212 73.6333 114.505 73.4166C114.631 73.3257 114.754 73.2873 114.872 73.3012C114.998 73.3082 115.103 73.3572 115.187 73.448C115.271 73.5319 115.313 73.6508 115.313 73.8046C115.313 73.9514 115.257 74.0807 115.145 74.1926C114.39 74.8008 113.534 75.1049 112.576 75.1049ZM116.732 75C116.536 75 116.386 74.9161 116.281 74.7483C116.176 74.5806 116.166 74.4023 116.25 74.2135L119.196 67.1773C119.301 66.9326 119.472 66.8103 119.71 66.8103C119.962 66.8103 120.133 66.9326 120.224 67.1773L123.181 74.2345C123.258 74.4302 123.244 74.6085 123.139 74.7693C123.041 74.9231 122.891 75 122.688 75C122.583 75 122.482 74.972 122.384 74.9161C122.293 74.8532 122.227 74.7693 122.185 74.6644L121.598 73.1964H117.833L117.235 74.6644C117.186 74.7763 117.113 74.8602 117.015 74.9161C116.924 74.972 116.83 75 116.732 75ZM118.2 72.2946H121.231L119.731 68.5615L118.2 72.2946ZM127.896 75.1049C127.329 75.1049 126.798 75 126.302 74.7903C125.812 74.5736 125.382 74.2765 125.012 73.8989C124.648 73.5145 124.362 73.067 124.152 72.5567C123.949 72.0464 123.848 71.4941 123.848 70.8999C123.848 70.3127 123.949 69.7674 124.152 69.264C124.362 68.7537 124.648 68.3098 125.012 67.9323C125.382 67.5478 125.812 67.2472 126.302 67.0305C126.791 66.8138 127.322 66.7054 127.896 66.7054C128.434 66.7054 128.895 66.7753 129.28 66.9151C129.671 67.055 130.063 67.2857 130.454 67.6072C130.538 67.6771 130.594 67.7435 130.622 67.8065C130.65 67.8694 130.664 67.9463 130.664 68.0372C130.664 68.17 130.615 68.2818 130.517 68.3727C130.426 68.4566 130.314 68.5055 130.182 68.5195C130.049 68.5265 129.919 68.4811 129.794 68.3832C129.535 68.1595 129.266 67.9882 128.986 67.8694C128.713 67.7505 128.35 67.6911 127.896 67.6911C127.483 67.6911 127.095 67.775 126.732 67.9428C126.368 68.1106 126.046 68.3413 125.767 68.6349C125.494 68.9285 125.281 69.271 125.127 69.6625C124.973 70.047 124.897 70.4595 124.897 70.8999C124.897 71.3473 124.973 71.7668 125.127 72.1582C125.281 72.5427 125.494 72.8818 125.767 73.1754C126.046 73.469 126.368 73.6997 126.732 73.8675C127.095 74.0283 127.483 74.1087 127.896 74.1087C128.252 74.1087 128.588 74.0493 128.902 73.9304C129.224 73.8046 129.531 73.6333 129.825 73.4166C129.951 73.3257 130.073 73.2873 130.192 73.3012C130.318 73.3082 130.423 73.3572 130.507 73.448C130.591 73.5319 130.632 73.6508 130.632 73.8046C130.632 73.9514 130.577 74.0807 130.465 74.1926C129.71 74.8008 128.853 75.1049 127.896 75.1049ZM127.77 77.4538C127.35 77.4538 127.004 77.3664 126.732 77.1916C126.466 77.0168 126.333 76.8106 126.333 76.5729C126.333 76.4331 126.382 76.3143 126.48 76.2164C126.578 76.1185 126.693 76.0696 126.826 76.0696C126.91 76.0696 126.98 76.0871 127.036 76.122C127.099 76.164 127.148 76.2339 127.183 76.3317C127.231 76.4576 127.308 76.5485 127.413 76.6044C127.525 76.6673 127.647 76.6988 127.78 76.6988C127.92 76.6988 128.035 76.6638 128.126 76.5939C128.217 76.531 128.263 76.4436 128.263 76.3317C128.263 76.2059 128.228 76.1045 128.158 76.0276C128.088 75.9507 127.965 75.8983 127.791 75.8704C127.574 75.8354 127.42 75.762 127.329 75.6501C127.245 75.5453 127.242 75.381 127.319 75.1573L127.424 74.8637C127.522 74.5771 127.721 74.4337 128.021 74.4337C128.196 74.4337 128.325 74.4897 128.409 74.6015C128.5 74.7134 128.507 74.8497 128.43 75.0105L128.273 75.367C128.637 75.4439 128.902 75.5628 129.07 75.7235C129.238 75.8843 129.322 76.0976 129.322 76.3632C129.322 76.545 129.259 76.7197 129.133 76.8875C129.007 77.0553 128.829 77.1916 128.598 77.2965C128.367 77.4013 128.091 77.4538 127.77 77.4538ZM136.162 75.1049C135.547 75.1049 134.984 75.0035 134.474 74.8008C133.964 74.591 133.523 74.3009 133.153 73.9304C132.789 73.5529 132.506 73.109 132.303 72.5987C132.101 72.0813 131.999 71.5151 131.999 70.8999C131.999 70.2847 132.101 69.7219 132.303 69.2116C132.506 68.7013 132.789 68.2609 133.153 67.8904C133.523 67.5129 133.964 67.2227 134.474 67.02C134.984 66.8103 135.547 66.7054 136.162 66.7054C136.777 66.7054 137.337 66.8103 137.84 67.02C138.35 67.2227 138.791 67.5129 139.161 67.8904C139.532 68.2609 139.818 68.7013 140.021 69.2116C140.224 69.7219 140.325 70.2847 140.325 70.8999C140.325 71.5151 140.224 72.0813 140.021 72.5987C139.818 73.109 139.532 73.5529 139.161 73.9304C138.791 74.3009 138.35 74.591 137.84 74.8008C137.337 75.0035 136.777 75.1049 136.162 75.1049ZM136.162 74.1192C136.77 74.1192 137.309 73.9793 137.777 73.6997C138.246 73.4131 138.613 73.0286 138.878 72.5462C139.144 72.0569 139.277 71.5081 139.277 70.8999C139.277 70.2917 139.144 69.7464 138.878 69.264C138.613 68.7747 138.246 68.3902 137.777 68.1106C137.309 67.8309 136.77 67.6911 136.162 67.6911C135.554 67.6911 135.016 67.8309 134.547 68.1106C134.079 68.3902 133.712 68.7747 133.446 69.264C133.181 69.7464 133.048 70.2917 133.048 70.8999C133.048 71.5081 133.181 72.0569 133.446 72.5462C133.712 73.0286 134.079 73.4131 134.547 73.6997C135.016 73.9793 135.554 74.1192 136.162 74.1192ZM137.284 66.0238C137.047 66.0238 136.84 65.9889 136.666 65.9189C136.491 65.8421 136.341 65.7686 136.215 65.6987C135.921 65.538 135.69 65.4576 135.523 65.4576C135.425 65.4576 135.337 65.475 135.26 65.51C135.184 65.5449 135.103 65.6218 135.019 65.7407C134.935 65.8525 134.834 65.9364 134.715 65.9924C134.596 66.0413 134.471 66.0343 134.338 65.9714C134.24 65.9224 134.18 65.8316 134.159 65.6987C134.138 65.5659 134.166 65.4436 134.243 65.3317C134.404 65.094 134.6 64.9158 134.831 64.7969C135.068 64.6781 135.323 64.6187 135.596 64.6187C135.82 64.6187 136.015 64.6571 136.183 64.734C136.358 64.8039 136.505 64.8703 136.624 64.9332C136.784 65.0241 136.907 65.087 136.991 65.122C137.075 65.157 137.162 65.1744 137.253 65.1744C137.344 65.1744 137.424 65.157 137.494 65.122C137.564 65.087 137.623 65.0451 137.672 64.9962C137.77 64.8983 137.865 64.8319 137.955 64.7969C138.046 64.755 138.158 64.7725 138.291 64.8494C138.396 64.9123 138.452 65.0136 138.459 65.1535C138.473 65.2933 138.434 65.4191 138.343 65.531C138.078 65.8595 137.725 66.0238 137.284 66.0238ZM142.579 75C142.425 75 142.296 74.9476 142.191 74.8427C142.086 74.7378 142.034 74.6085 142.034 74.4547V67.3556C142.034 67.1948 142.086 67.0654 142.191 66.9676C142.296 66.8627 142.425 66.8103 142.579 66.8103H147.319C147.479 66.8103 147.609 66.8592 147.707 66.9571C147.804 67.048 147.853 67.1703 147.853 67.3241C147.853 67.4709 147.804 67.5898 147.707 67.6806C147.609 67.7715 147.479 67.817 147.319 67.817H143.124V70.3651H146.134C146.294 70.3651 146.424 70.414 146.522 70.5119C146.619 70.6028 146.668 70.7216 146.668 70.8684C146.668 71.0152 146.619 71.1376 146.522 71.2355C146.424 71.3263 146.294 71.3718 146.134 71.3718H143.124V73.9933H147.319C147.479 73.9933 147.609 74.0388 147.707 74.1296C147.804 74.2205 147.853 74.3394 147.853 74.4862C147.853 74.64 147.804 74.7658 147.707 74.8637C147.609 74.9546 147.479 75 147.319 75H142.579ZM151.976 75.1049C151.529 75.1049 151.103 75.035 150.697 74.8951C150.292 74.7553 149.939 74.5596 149.638 74.3079C149.337 74.0562 149.117 73.7661 148.977 73.4376C148.908 73.2907 148.908 73.1544 148.977 73.0286C149.054 72.9028 149.18 72.8224 149.355 72.7874C149.481 72.7594 149.603 72.7804 149.722 72.8503C149.848 72.9132 149.942 73.0111 150.005 73.1439C150.089 73.3187 150.225 73.4795 150.414 73.6263C150.61 73.7731 150.844 73.892 151.117 73.9828C151.389 74.0737 151.676 74.1192 151.976 74.1192C152.312 74.1192 152.62 74.0667 152.899 73.9619C153.186 73.857 153.417 73.7067 153.591 73.511C153.766 73.3082 153.853 73.0601 153.853 72.7664C153.853 72.3959 153.707 72.0639 153.413 71.7703C153.126 71.4766 152.651 71.2949 151.987 71.225C151.12 71.1411 150.438 70.8859 149.942 70.4595C149.446 70.033 149.198 69.5052 149.198 68.8761C149.198 68.4147 149.327 68.0232 149.586 67.7016C149.844 67.38 150.194 67.1353 150.634 66.9676C151.082 66.7998 151.578 66.7159 152.123 66.7159C152.759 66.7159 153.28 66.8452 153.686 67.1039C154.091 67.3626 154.427 67.7051 154.692 68.1315C154.79 68.2853 154.829 68.4321 154.808 68.572C154.794 68.7048 154.727 68.8096 154.609 68.8865C154.476 68.9704 154.332 68.9879 154.179 68.939C154.025 68.89 153.909 68.7992 153.833 68.6663C153.658 68.3657 153.431 68.1315 153.151 67.9638C152.878 67.796 152.525 67.7086 152.092 67.7016C151.574 67.6946 151.141 67.7925 150.792 67.9952C150.442 68.191 150.267 68.4951 150.267 68.9075C150.267 69.1172 150.32 69.32 150.425 69.5157C150.536 69.7045 150.736 69.8688 151.022 70.0086C151.316 70.1484 151.735 70.2463 152.281 70.3022C153.112 70.3861 153.759 70.6412 154.221 71.0677C154.689 71.4871 154.923 72.0429 154.923 72.735C154.923 73.1335 154.839 73.4795 154.671 73.7731C154.511 74.0667 154.29 74.3149 154.011 74.5176C153.738 74.7134 153.424 74.8602 153.067 74.9581C152.717 75.0559 152.354 75.1049 151.976 75.1049Z" fill="white"/>
</svg>
