<svg width="228" height="95" viewBox="0 0 228 95" fill="none" xmlns="http://www.w3.org/2000/svg">
<path d="M119.09 41.92C118.99 41.78 118.85 41.71 118.67 41.71C118.51 41.71 118.37 41.78 118.26 41.92C118.15 42.06 118.1 42.26 118.1 42.51V55.57C118.1 55.8 118.15 55.99 118.26 56.15C118.37 56.3 118.5 56.38 118.67 56.38C118.85 56.38 118.98 56.3 119.09 56.15C119.19 56 119.24 55.81 119.24 55.57V42.51C119.24 42.26 119.19 42.07 119.09 41.92Z" fill="#222323"/>
<path d="M140.03 72.32C136.07 69.99 132.96 66.78 130.69 62.69C128.42 58.6 127.29 54.07 127.29 49.09C127.29 44.05 128.34 39.5 130.45 35.44C132.56 31.39 135.49 28.19 139.26 25.86C143.03 23.53 147.24 22.36 151.9 22.36C155.99 22.36 159.72 23.16 163.11 24.75C166.49 26.35 169.43 28.71 171.92 31.84C172.37 32.48 172.59 33.02 172.59 33.47C172.59 34.36 172.14 35.07 171.25 35.58C170.8 35.96 170.29 36.15 169.72 36.15C168.82 36.15 168.09 35.77 167.52 35C163.43 30.15 158.23 27.72 151.91 27.72C148.21 27.72 144.92 28.63 142.04 30.45C139.17 32.27 136.95 34.81 135.38 38.06C133.81 41.32 133.03 44.99 133.03 49.07C133.03 53.09 133.89 56.73 135.62 59.99C137.34 63.25 139.74 65.8 142.8 67.65C145.86 69.5 149.38 70.43 153.34 70.43C158.96 70.43 163.46 68.87 166.84 65.74C167.41 65.17 168.09 64.88 168.85 64.88C169.55 64.88 170.13 65.1 170.57 65.55C171.21 66.12 171.53 66.83 171.53 67.66C171.53 68.36 171.27 68.94 170.76 69.38C168.52 71.42 165.91 73 162.91 74.12C159.91 75.24 156.72 75.8 153.33 75.8C148.43 75.82 143.99 74.66 140.03 72.32Z" fill="#222323"/>
<path d="M227.19 72.75C227.19 73.45 226.84 74.12 226.14 74.76C225.5 75.27 224.93 75.53 224.42 75.53C223.65 75.53 222.98 75.15 222.41 74.38L201.62 49L192.71 57.14V72.37C192.71 73.2 192.45 73.89 191.94 74.43C191.43 74.97 190.73 75.24 189.83 75.24C189 75.24 188.31 74.97 187.77 74.43C187.23 73.89 186.96 73.2 186.96 72.37V3.32C186.96 2.43 187.23 1.72 187.77 1.21C188.31 0.700002 189 0.440002 189.83 0.440002C190.72 0.440002 191.43 0.700002 191.94 1.21C192.45 1.72 192.71 2.42 192.71 3.32V50.16L222.4 23.15C223.04 22.64 223.65 22.38 224.22 22.38C224.86 22.38 225.47 22.7 226.04 23.34C226.61 23.91 226.9 24.52 226.9 25.16C226.9 25.8 226.58 26.41 225.94 26.98L205.63 45.47L226.51 71.04C226.97 71.54 227.19 72.12 227.19 72.75Z" fill="#222323"/>
<path d="M111.65 75.74C110.64 75.74 109.8 75.28 109.13 74.35C108.46 73.42 108.13 72.25 108.13 70.85V28.13C108.13 26.66 108.46 25.48 109.13 24.58C109.8 23.68 110.63 23.24 111.65 23.24C112.71 23.24 113.56 23.69 114.2 24.58C114.84 25.48 115.17 26.66 115.17 28.13V70.85C115.17 72.26 114.85 73.43 114.2 74.35C113.55 75.28 112.7 75.74 111.65 75.74Z" fill="#222323"/>
<path d="M93.12 75.74C91.11 75.74 89.34 75.19 87.79 74.1C86.24 73.01 85.03 71.52 84.17 69.62C83.3 67.73 82.87 65.55 82.87 63.09V25.79C82.87 24.79 83.19 23.97 83.83 23.33C84.47 22.69 85.29 22.37 86.29 22.37C87.29 22.37 88.11 22.69 88.75 23.33C89.39 23.97 89.71 24.79 89.71 25.79V63.1C89.71 64.79 90.03 66.18 90.67 67.27C91.31 68.36 92.13 68.91 93.13 68.91H94.84C95.75 68.91 96.49 69.23 97.06 69.87C97.63 70.51 97.91 71.33 97.91 72.33C97.91 73.33 97.48 74.15 96.61 74.79C95.74 75.43 94.63 75.75 93.26 75.75H93.12V75.74Z" fill="#222323"/>
<path d="M42.67 92.56C36.8 92.56 31.31 91.46 26.2 89.24C21.09 87.03 16.63 83.95 12.83 80C9.03001 76.05 6.05001 71.43 3.92001 66.14C1.78001 60.85 0.710007 55.13 0.710007 48.97C0.710007 42.88 1.78001 37.21 3.92001 31.96C6.06001 26.71 9.03001 22.11 12.83 18.16C16.63 14.21 21.07 11.11 26.15 8.87C31.22 6.62 36.73 5.5 42.67 5.5C48.25 5.5 53.05 6.23 57.07 7.67C61.09 9.12 65.13 11.51 69.19 14.84C69.77 15.27 70.22 15.73 70.55 16.2C70.88 16.67 71.09 17.14 71.2 17.61C71.31 18.08 71.36 18.64 71.36 19.29C71.36 20.67 70.87 21.81 69.89 22.71C68.91 23.62 67.73 24.12 66.36 24.23C64.98 24.34 63.64 23.89 62.34 22.87C59.66 20.55 56.89 18.78 54.02 17.54C51.16 16.31 47.37 15.69 42.66 15.69C38.38 15.69 34.36 16.56 30.59 18.3C26.82 20.04 23.51 22.43 20.64 25.47C17.78 28.51 15.55 32.05 13.95 36.07C12.36 40.09 11.56 44.39 11.56 48.95C11.56 53.59 12.36 57.92 13.95 61.94C15.54 65.96 17.77 69.49 20.64 72.54C23.5 75.58 26.82 77.96 30.59 79.66C34.36 81.36 38.38 82.21 42.66 82.21C46.36 82.21 49.85 81.58 53.15 80.31C56.45 79.04 59.62 77.29 62.66 75.04C63.96 74.1 65.25 73.68 66.52 73.79C67.79 73.9 68.86 74.41 69.73 75.31C70.6 76.22 71.03 77.47 71.03 79.06C71.03 79.79 70.88 80.49 70.6 81.18C70.31 81.87 69.87 82.5 69.3 83.08C65.39 86.2 61.2 88.55 56.75 90.15C52.29 91.77 47.6 92.56 42.67 92.56Z" fill="#222323"/>
<path d="M78.8058 91.3489C78.2395 91.3489 77.7082 91.244 77.2119 91.0343C76.7225 90.8176 76.2926 90.5205 75.9221 90.143C75.5586 89.7585 75.2719 89.3111 75.0622 88.8007C74.8595 88.2904 74.7581 87.7381 74.7581 87.1439C74.7581 86.5567 74.8595 86.0114 75.0622 85.5081C75.2719 84.9977 75.5586 84.5538 75.9221 84.1763C76.2926 83.7918 76.7225 83.4912 77.2119 83.2745C77.7012 83.0578 78.2326 82.9494 78.8058 82.9494C79.3441 82.9494 79.8055 83.0193 80.19 83.1592C80.5815 83.299 80.9729 83.5297 81.3644 83.8512C81.4483 83.9212 81.5042 83.9876 81.5322 84.0505C81.5602 84.1134 81.5742 84.1903 81.5742 84.2812C81.5742 84.414 81.5252 84.5259 81.4273 84.6167C81.3365 84.7006 81.2246 84.7496 81.0918 84.7635C80.959 84.7705 80.8296 84.7251 80.7038 84.6272C80.4451 84.4035 80.176 84.2322 79.8964 84.1134C79.6237 83.9946 79.2602 83.9351 78.8058 83.9351C78.3933 83.9351 78.0053 84.019 77.6418 84.1868C77.2783 84.3546 76.9567 84.5853 76.6771 84.8789C76.4045 85.1725 76.1912 85.5151 76.0374 85.9065C75.8836 86.291 75.8067 86.7035 75.8067 87.1439C75.8067 87.5913 75.8836 88.0108 76.0374 88.4023C76.1912 88.7868 76.4045 89.1258 76.6771 89.4194C76.9567 89.713 77.2783 89.9437 77.6418 90.1115C78.0053 90.2723 78.3933 90.3527 78.8058 90.3527C79.1623 90.3527 79.4979 90.2933 79.8125 90.1744C80.134 90.0486 80.4416 89.8773 80.7353 89.6606C80.8611 89.5697 80.9834 89.5313 81.1023 89.5453C81.2281 89.5522 81.333 89.6012 81.4169 89.6921C81.5007 89.776 81.5427 89.8948 81.5427 90.0486C81.5427 90.1954 81.4868 90.3247 81.3749 90.4366C80.6199 91.0448 79.7635 91.3489 78.8058 91.3489ZM87.0725 91.3489C86.4573 91.3489 85.8946 91.2475 85.3842 91.0448C84.8739 90.8351 84.4335 90.5449 84.063 90.1744C83.6995 89.7969 83.4163 89.353 83.2136 88.8427C83.0109 88.3254 82.9095 87.7591 82.9095 87.1439C82.9095 86.5287 83.0109 85.966 83.2136 85.4556C83.4163 84.9453 83.6995 84.5049 84.063 84.1344C84.4335 83.7569 84.8739 83.4668 85.3842 83.264C85.8946 83.0543 86.4573 82.9494 87.0725 82.9494C87.6877 82.9494 88.247 83.0543 88.7503 83.264C89.2606 83.4668 89.7011 83.7569 90.0716 84.1344C90.4421 84.5049 90.7287 84.9453 90.9314 85.4556C91.1342 85.966 91.2355 86.5287 91.2355 87.1439C91.2355 87.7591 91.1342 88.3254 90.9314 88.8427C90.7287 89.353 90.4421 89.7969 90.0716 90.1744C89.7011 90.5449 89.2606 90.8351 88.7503 91.0448C88.247 91.2475 87.6877 91.3489 87.0725 91.3489ZM87.0725 90.3632C87.6807 90.3632 88.219 90.2234 88.6874 89.9437C89.1558 89.6571 89.5228 89.2726 89.7885 88.7902C90.0541 88.3009 90.1869 87.7521 90.1869 87.1439C90.1869 86.5357 90.0541 85.9904 89.7885 85.5081C89.5228 85.0187 89.1558 84.6342 88.6874 84.3546C88.219 84.075 87.6807 83.9351 87.0725 83.9351C86.4643 83.9351 85.926 84.075 85.4577 84.3546C84.9893 84.6342 84.6223 85.0187 84.3566 85.5081C84.091 85.9904 83.9581 86.5357 83.9581 87.1439C83.9581 87.7521 84.091 88.3009 84.3566 88.7902C84.6223 89.2726 84.9893 89.6571 85.4577 89.9437C85.926 90.2234 86.4643 90.3632 87.0725 90.3632ZM93.489 91.244C93.3352 91.244 93.2059 91.1916 93.101 91.0867C92.9962 90.9819 92.9437 90.8525 92.9437 90.6987V83.5996C92.9437 83.4388 92.9962 83.3095 93.101 83.2116C93.2059 83.1067 93.3352 83.0543 93.489 83.0543C93.6987 83.0543 93.8595 83.1522 93.9714 83.3479L97.0858 89.5872L100.116 83.3479C100.228 83.1522 100.389 83.0543 100.599 83.0543C100.752 83.0543 100.882 83.1067 100.987 83.2116C101.092 83.3095 101.144 83.4388 101.144 83.5996V90.6987C101.144 90.8525 101.088 90.9819 100.976 91.0867C100.871 91.1916 100.745 91.244 100.599 91.244C100.445 91.244 100.316 91.1916 100.211 91.0867C100.106 90.9819 100.053 90.8525 100.053 90.6987V85.4871L97.5157 90.6568C97.3969 90.8386 97.2396 90.9294 97.0438 90.9294C96.8131 90.9294 96.6454 90.8211 96.5405 90.6044L94.0343 85.5815V90.6987C94.0343 90.8525 93.9819 90.9819 93.877 91.0867C93.7721 91.1916 93.6428 91.244 93.489 91.244ZM106.675 91.4118C106.003 91.4118 105.409 91.2895 104.892 91.0448C104.375 90.7931 103.969 90.4471 103.676 90.0066C103.389 89.5662 103.246 89.0629 103.246 88.4966V83.5996C103.246 83.4388 103.298 83.3095 103.403 83.2116C103.508 83.1067 103.637 83.0543 103.791 83.0543C103.952 83.0543 104.081 83.1067 104.179 83.2116C104.284 83.3095 104.336 83.4388 104.336 83.5996V88.4966C104.336 88.8741 104.434 89.2097 104.63 89.5033C104.833 89.7899 105.109 90.0171 105.458 90.1849C105.815 90.3457 106.22 90.4261 106.675 90.4261C107.115 90.4261 107.503 90.3457 107.839 90.1849C108.181 90.0171 108.447 89.7899 108.636 89.5033C108.831 89.2097 108.929 88.8741 108.929 88.4966V83.5996C108.929 83.4388 108.982 83.3095 109.086 83.2116C109.191 83.1067 109.321 83.0543 109.474 83.0543C109.635 83.0543 109.765 83.1067 109.862 83.2116C109.96 83.3095 110.009 83.4388 110.009 83.5996V88.4966C110.009 89.0629 109.866 89.5662 109.579 90.0066C109.3 90.4471 108.908 90.7931 108.405 91.0448C107.901 91.2895 107.325 91.4118 106.675 91.4118ZM112.638 91.244C112.485 91.244 112.355 91.1916 112.25 91.0867C112.153 90.9819 112.104 90.8525 112.104 90.6987V83.5996C112.104 83.4388 112.153 83.3095 112.25 83.2116C112.355 83.1067 112.485 83.0543 112.638 83.0543C112.806 83.0543 112.946 83.1207 113.058 83.2535L117.63 89.3355V83.5996C117.63 83.4388 117.682 83.3095 117.787 83.2116C117.892 83.1067 118.021 83.0543 118.175 83.0543C118.336 83.0543 118.465 83.1067 118.563 83.2116C118.661 83.3095 118.71 83.4388 118.71 83.5996V90.6987C118.71 90.8525 118.661 90.9819 118.563 91.0867C118.465 91.1916 118.336 91.244 118.175 91.244C118.105 91.244 118.028 91.23 117.944 91.2021C117.867 91.1671 117.805 91.1182 117.756 91.0553L113.184 84.9733V90.6987C113.184 90.8525 113.131 90.9819 113.026 91.0867C112.928 91.1916 112.799 91.244 112.638 91.244ZM121.353 91.244C121.199 91.244 121.07 91.1916 120.965 91.0867C120.86 90.9819 120.808 90.8525 120.808 90.6987V83.5996C120.808 83.4388 120.86 83.3095 120.965 83.2116C121.07 83.1067 121.199 83.0543 121.353 83.0543C121.514 83.0543 121.643 83.1067 121.741 83.2116C121.846 83.3095 121.899 83.4388 121.899 83.5996V90.6987C121.899 90.8525 121.846 90.9819 121.741 91.0867C121.643 91.1916 121.514 91.244 121.353 91.244ZM127.663 91.3489C127.097 91.3489 126.565 91.244 126.069 91.0343C125.58 90.8176 125.15 90.5205 124.779 90.143C124.416 89.7585 124.129 89.3111 123.919 88.8007C123.717 88.2904 123.615 87.7381 123.615 87.1439C123.615 86.5567 123.717 86.0114 123.919 85.5081C124.129 84.9977 124.416 84.5538 124.779 84.1763C125.15 83.7918 125.58 83.4912 126.069 83.2745C126.558 83.0578 127.09 82.9494 127.663 82.9494C128.201 82.9494 128.663 83.0193 129.047 83.1592C129.439 83.299 129.83 83.5297 130.222 83.8512C130.305 83.9212 130.361 83.9876 130.389 84.0505C130.417 84.1134 130.431 84.1903 130.431 84.2812C130.431 84.414 130.382 84.5259 130.284 84.6167C130.194 84.7006 130.082 84.7496 129.949 84.7635C129.816 84.7705 129.687 84.7251 129.561 84.6272C129.302 84.4035 129.033 84.2322 128.753 84.1134C128.481 83.9946 128.117 83.9351 127.663 83.9351C127.25 83.9351 126.862 84.019 126.499 84.1868C126.135 84.3546 125.814 84.5853 125.534 84.8789C125.262 85.1725 125.048 85.5151 124.895 85.9065C124.741 86.291 124.664 86.7035 124.664 87.1439C124.664 87.5913 124.741 88.0108 124.895 88.4023C125.048 88.7868 125.262 89.1258 125.534 89.4194C125.814 89.713 126.135 89.9437 126.499 90.1115C126.862 90.2723 127.25 90.3527 127.663 90.3527C128.019 90.3527 128.355 90.2933 128.67 90.1744C128.991 90.0486 129.299 89.8773 129.592 89.6606C129.718 89.5697 129.841 89.5313 129.959 89.5453C130.085 89.5522 130.19 89.6012 130.274 89.6921C130.358 89.776 130.4 89.8948 130.4 90.0486C130.4 90.1954 130.344 90.3247 130.232 90.4366C129.477 91.0448 128.621 91.3489 127.663 91.3489ZM131.819 91.244C131.623 91.244 131.473 91.1601 131.368 90.9923C131.263 90.8246 131.253 90.6463 131.337 90.4576L134.283 83.4213C134.388 83.1766 134.559 83.0543 134.797 83.0543C135.049 83.0543 135.22 83.1766 135.311 83.4213L138.268 90.4785C138.345 90.6743 138.331 90.8525 138.226 91.0133C138.128 91.1671 137.978 91.244 137.775 91.244C137.67 91.244 137.569 91.2161 137.471 91.1601C137.38 91.0972 137.314 91.0133 137.272 90.9085L136.685 89.4404H132.92L132.322 90.9085C132.273 91.0203 132.2 91.1042 132.102 91.1601C132.011 91.2161 131.917 91.244 131.819 91.244ZM133.287 88.5386H136.318L134.818 84.8055L133.287 88.5386ZM142.983 91.3489C142.416 91.3489 141.885 91.244 141.389 91.0343C140.899 90.8176 140.469 90.5205 140.099 90.143C139.735 89.7585 139.449 89.3111 139.239 88.8007C139.036 88.2904 138.935 87.7381 138.935 87.1439C138.935 86.5567 139.036 86.0114 139.239 85.5081C139.449 84.9977 139.735 84.5538 140.099 84.1763C140.469 83.7918 140.899 83.4912 141.389 83.2745C141.878 83.0578 142.409 82.9494 142.983 82.9494C143.521 82.9494 143.982 83.0193 144.367 83.1592C144.758 83.299 145.15 83.5297 145.541 83.8512C145.625 83.9212 145.681 83.9876 145.709 84.0505C145.737 84.1134 145.751 84.1903 145.751 84.2812C145.751 84.414 145.702 84.5259 145.604 84.6167C145.513 84.7006 145.401 84.7496 145.269 84.7635C145.136 84.7705 145.006 84.7251 144.881 84.6272C144.622 84.4035 144.353 84.2322 144.073 84.1134C143.8 83.9946 143.437 83.9351 142.983 83.9351C142.57 83.9351 142.182 84.019 141.819 84.1868C141.455 84.3546 141.134 84.5853 140.854 84.8789C140.581 85.1725 140.368 85.5151 140.214 85.9065C140.06 86.291 139.984 86.7035 139.984 87.1439C139.984 87.5913 140.06 88.0108 140.214 88.4023C140.368 88.7868 140.581 89.1258 140.854 89.4194C141.134 89.713 141.455 89.9437 141.819 90.1115C142.182 90.2723 142.57 90.3527 142.983 90.3527C143.339 90.3527 143.675 90.2933 143.989 90.1744C144.311 90.0486 144.618 89.8773 144.912 89.6606C145.038 89.5697 145.16 89.5313 145.279 89.5453C145.405 89.5522 145.51 89.6012 145.594 89.6921C145.678 89.776 145.719 89.8948 145.719 90.0486C145.719 90.1954 145.664 90.3247 145.552 90.4366C144.797 91.0448 143.94 91.3489 142.983 91.3489ZM142.857 93.6978C142.437 93.6978 142.091 93.6104 141.819 93.4356C141.553 93.2609 141.42 93.0546 141.42 92.8169C141.42 92.6771 141.469 92.5583 141.567 92.4604C141.665 92.3625 141.78 92.3136 141.913 92.3136C141.997 92.3136 142.067 92.3311 142.123 92.366C142.186 92.408 142.235 92.4779 142.27 92.5758C142.318 92.7016 142.395 92.7925 142.5 92.8484C142.612 92.9113 142.734 92.9428 142.867 92.9428C143.007 92.9428 143.122 92.9078 143.213 92.8379C143.304 92.775 143.35 92.6876 143.35 92.5758C143.35 92.4499 143.315 92.3486 143.245 92.2717C143.175 92.1948 143.052 92.1423 142.878 92.1144C142.661 92.0794 142.507 92.006 142.416 91.8942C142.332 91.7893 142.329 91.625 142.406 91.4013L142.511 91.1077C142.609 90.8211 142.808 90.6778 143.108 90.6778C143.283 90.6778 143.413 90.7337 143.496 90.8455C143.587 90.9574 143.594 91.0937 143.517 91.2545L143.36 91.611C143.724 91.6879 143.989 91.8068 144.157 91.9676C144.325 92.1284 144.409 92.3416 144.409 92.6072C144.409 92.789 144.346 92.9638 144.22 93.1315C144.094 93.2993 143.916 93.4356 143.685 93.5405C143.454 93.6454 143.178 93.6978 142.857 93.6978ZM151.249 91.3489C150.634 91.3489 150.071 91.2475 149.561 91.0448C149.051 90.8351 148.61 90.5449 148.24 90.1744C147.876 89.7969 147.593 89.353 147.39 88.8427C147.188 88.3254 147.086 87.7591 147.086 87.1439C147.086 86.5287 147.188 85.966 147.39 85.4556C147.593 84.9453 147.876 84.5049 148.24 84.1344C148.61 83.7569 149.051 83.4668 149.561 83.264C150.071 83.0543 150.634 82.9494 151.249 82.9494C151.864 82.9494 152.424 83.0543 152.927 83.264C153.437 83.4668 153.878 83.7569 154.248 84.1344C154.619 84.5049 154.905 84.9453 155.108 85.4556C155.311 85.966 155.412 86.5287 155.412 87.1439C155.412 87.7591 155.311 88.3254 155.108 88.8427C154.905 89.353 154.619 89.7969 154.248 90.1744C153.878 90.5449 153.437 90.8351 152.927 91.0448C152.424 91.2475 151.864 91.3489 151.249 91.3489ZM151.249 90.3632C151.857 90.3632 152.396 90.2234 152.864 89.9437C153.333 89.6571 153.7 89.2726 153.965 88.7902C154.231 88.3009 154.364 87.7521 154.364 87.1439C154.364 86.5357 154.231 85.9904 153.965 85.5081C153.7 85.0187 153.333 84.6342 152.864 84.3546C152.396 84.075 151.857 83.9351 151.249 83.9351C150.641 83.9351 150.103 84.075 149.634 84.3546C149.166 84.6342 148.799 85.0187 148.533 85.5081C148.268 85.9904 148.135 86.5357 148.135 87.1439C148.135 87.7521 148.268 88.3009 148.533 88.7902C148.799 89.2726 149.166 89.6571 149.634 89.9437C150.103 90.2234 150.641 90.3632 151.249 90.3632ZM152.371 82.2678C152.134 82.2678 151.927 82.2329 151.753 82.163C151.578 82.0861 151.428 82.0127 151.302 81.9428C151.008 81.782 150.777 81.7016 150.61 81.7016C150.512 81.7016 150.424 81.7191 150.347 81.754C150.271 81.789 150.19 81.8659 150.106 81.9847C150.022 82.0966 149.921 82.1804 149.802 82.2364C149.683 82.2853 149.558 82.2783 149.425 82.2154C149.327 82.1665 149.267 82.0756 149.246 81.9428C149.225 81.8099 149.253 81.6876 149.33 81.5757C149.491 81.3381 149.687 81.1598 149.918 81.0409C150.155 80.9221 150.41 80.8627 150.683 80.8627C150.907 80.8627 151.102 80.9011 151.27 80.978C151.445 81.0479 151.592 81.1143 151.711 81.1773C151.871 81.2681 151.994 81.3311 152.078 81.366C152.162 81.401 152.249 81.4184 152.34 81.4184C152.431 81.4184 152.511 81.401 152.581 81.366C152.651 81.3311 152.71 81.2891 152.759 81.2402C152.857 81.1423 152.952 81.0759 153.042 81.0409C153.133 80.999 153.245 81.0165 153.378 81.0934C153.483 81.1563 153.539 81.2577 153.546 81.3975C153.56 81.5373 153.521 81.6631 153.43 81.775C153.165 82.1035 152.812 82.2678 152.371 82.2678ZM157.666 91.244C157.512 91.244 157.383 91.1916 157.278 91.0867C157.173 90.9819 157.121 90.8525 157.121 90.6987V83.5996C157.121 83.4388 157.173 83.3095 157.278 83.2116C157.383 83.1067 157.512 83.0543 157.666 83.0543H162.406C162.566 83.0543 162.696 83.1032 162.794 83.2011C162.891 83.292 162.94 83.4143 162.94 83.5681C162.94 83.7149 162.891 83.8338 162.794 83.9247C162.696 84.0155 162.566 84.061 162.406 84.061H158.211V86.6091H161.221C161.381 86.6091 161.511 86.6581 161.609 86.7559C161.706 86.8468 161.755 86.9656 161.755 87.1125C161.755 87.2593 161.706 87.3816 161.609 87.4795C161.511 87.5704 161.381 87.6158 161.221 87.6158H158.211V90.2373H162.406C162.566 90.2373 162.696 90.2828 162.794 90.3737C162.891 90.4645 162.94 90.5834 162.94 90.7302C162.94 90.884 162.891 91.0098 162.794 91.1077C162.696 91.1986 162.566 91.244 162.406 91.244H157.666ZM167.063 91.3489C166.616 91.3489 166.19 91.279 165.784 91.1392C165.379 90.9993 165.026 90.8036 164.725 90.5519C164.424 90.3003 164.204 90.0101 164.064 89.6816C163.995 89.5348 163.995 89.3984 164.064 89.2726C164.141 89.1468 164.267 89.0664 164.442 89.0314C164.568 89.0035 164.69 89.0244 164.809 89.0943C164.935 89.1573 165.029 89.2551 165.092 89.388C165.176 89.5627 165.312 89.7235 165.501 89.8703C165.697 90.0171 165.931 90.136 166.204 90.2269C166.476 90.3177 166.763 90.3632 167.063 90.3632C167.399 90.3632 167.707 90.3107 167.986 90.2059C168.273 90.101 168.504 89.9507 168.678 89.755C168.853 89.5522 168.941 89.3041 168.941 89.0105C168.941 88.6399 168.794 88.3079 168.5 88.0143C168.213 87.7207 167.738 87.5389 167.074 87.469C166.207 87.3851 165.525 87.1299 165.029 86.7035C164.533 86.2771 164.285 85.7492 164.285 85.1201C164.285 84.6587 164.414 84.2672 164.673 83.9456C164.931 83.624 165.281 83.3794 165.721 83.2116C166.169 83.0438 166.665 82.9599 167.21 82.9599C167.846 82.9599 168.367 83.0892 168.773 83.3479C169.178 83.6066 169.514 83.9491 169.779 84.3756C169.877 84.5294 169.916 84.6762 169.895 84.816C169.881 84.9488 169.814 85.0537 169.696 85.1306C169.563 85.2145 169.419 85.2319 169.266 85.183C169.112 85.1341 168.996 85.0432 168.92 84.9104C168.745 84.6097 168.518 84.3756 168.238 84.2078C167.965 84.04 167.612 83.9526 167.179 83.9456C166.662 83.9386 166.228 84.0365 165.879 84.2392C165.529 84.435 165.354 84.7391 165.354 85.1515C165.354 85.3613 165.407 85.564 165.512 85.7597C165.623 85.9485 165.823 86.1128 166.109 86.2526C166.403 86.3924 166.822 86.4903 167.368 86.5462C168.199 86.6301 168.846 86.8853 169.308 87.3117C169.776 87.7311 170.01 88.2869 170.01 88.979C170.01 89.3775 169.926 89.7235 169.758 90.0171C169.598 90.3107 169.377 90.5589 169.098 90.7617C168.825 90.9574 168.511 91.1042 168.154 91.2021C167.804 91.2999 167.441 91.3489 167.063 91.3489Z" fill="#222323"/>
</svg>
